<?xml version="1.0" encoding="UTF-8"?>
<svg xmlns="http://www.w3.org/2000/svg" viewBox="0 0 100 80" role="img" aria-label="labelito">
  <path d="m 94.455,30.729 l -3.109,0.007 C 84.336,23.733 76.824,16.177 70.031,9.492 c -0.268,-0.263 -0.002,-1.082 -0.002,-3.059 c 0,0 -0.042,-1.263 -0.015,-3.138 l 13.853,13.7 c 7.647,7.563 13.781,13.784 13.75,13.772 c -0.031,-0.012 -1.432,-0.02 -3.162,-0.038 z" fill="#56b296"/>
  <path d="M 80.784,30.647 C 70.063,29.932 70.075,22.154 69.967,14.925 c -0.031,-3.652 -0.066,-5.505 0.018,-5.476 c 0.107,0.036 21.355,21.21 21.355,21.281 c 0,0.07 -6.511,0.187 -10.557,-0.082 z" fill="#1fa35b"/>
  <path d="m 12.584,8.06 a 0.72,0.72 0 0,0 -0.217,0.033 l -0.738,0.232 c -1.964,0.621 -3.548,2.143 -4.295,4.104 l -0.254,0.662 a 0.72,0.72 0 0,0 -0.047,0.258 L 7.004,39.734 C 6.987,54.202 6.968,60.93 7.041,64.249 c 0.036,1.66 0.09,2.464 0.203,3.025 c 0.113,0.561 0.311,0.839 0.457,1.135 c 0.782,1.584 2.559,2.993 4.314,3.465 c 0.206,0.055 0.335,0.057 0.604,0.072 c 0.268,0.015 0.641,0.026 1.172,0.037 c 1.062,0.022 2.753,0.039 5.424,0.051 c 5.341,0.024 14.601,0.032 30.555,0.035 c 12.02,0.002 21.313,-0.005 27.652,-0.023 c 3.169,-0.009 5.601,-0.021 7.266,-0.035 c 0.832,-0.007 1.472,-0.013 1.92,-0.021 c 0.224,-0.004 0.4,-0.009 0.531,-0.014 c 0.131,-0.004 0.13,0.013 0.328,-0.023 c 1.274,-0.235 2.609,-0.995 3.539,-1.984 c 0.437,-0.465 0.886,-1.025 1.133,-1.482 c 0.155,-0.289 0.337,-0.572 0.453,-1.033 c 0.117,-0.461 0.172,-1.047 0.211,-2.111 c 0.078,-2.129 0.07,-6.201 0.07,-14.785 L 92.873,34.857 A 0.72,0.72 0 0,0 92.152,34.136 L 86.398,34.134 C 80.938,34.133 79.652,34.08 78.013,33.798 C 75.243,33.321 72.722,32.019 70.707,30.021 C 68.755,28.085 67.641,25.929 66.9,22.571 c -0.123,-0.557 -0.174,-0.82 -0.211,-1.676 c -0.037,-0.856 -0.049,-2.272 -0.064,-4.967 c -0.018,-3.09 -0.043,-5.899 -0.061,-6.402 l -0.027,-0.764 a 0.72,0.72 0 0,0 -0.721,-0.695 l -26.615,-0.004 z" fill="#0376ea"/>
  <path d="m 79.142,59.32 c 0.555,-0.166 1.331,-0.897 1.331,-1.835 c -0.081,-1.075 -0.695,-1.817 -1.632,-1.858 c -0.168,-0.007 -57.31,-0.004 -57.945,0.003 c -1.308,0.014 -1.518,1.636 -1.518,1.856 c 0,0.928 0.867,1.895 1.544,1.884 c 0.172,-0.003 13.24,0.054 29.044,0.064 c 21.728,0.014 28.843,-0.014 29.176,-0.114 z" fill="#ffffff"/>
  <path d="M 11.853,76.667 C 10.837,76.488 9.632,76.103 8.747,75.676 C 5.684,74.197 3.487,71.519 2.576,68.155 C 2.37,67.393 2.363,66.513 2.363,40.022 L 2.363,12.675 l 0.247,-0.927 c 0.874,-3.276 3.232,-6.053 6.368,-7.502 c 0.446,-0.206 1.187,-0.491 1.646,-0.634 l 0.835,-0.259 l 29.279,-0.03 l 29.279,-0.03 l 0.039,8.34 c 0.034,7.408 0.06,8.431 0.232,9.156 c 1.158,4.892 4.407,8.268 9.23,9.592 c 0.878,0.241 1.091,0.248 9.49,0.31 l 8.592,0.064 l 0.031,17.295 c 0.02,10.933 -0.01,17.708 -0.081,18.418 c -0.269,2.692 -1.222,4.8 -3.033,6.712 c -1.495,1.578 -3.039,2.541 -5.121,3.193 l -1.005,0.315 l -38.128,0.013 c -20.971,0.007 -38.255,-0.009 -38.409,-0.036 z m 75.483,-5.423 c 2.087,-0.385 4.108,-2.269 4.644,-4.328 c 0.151,-0.579 0.172,-2.618 0.172,-16.36 L 92.153,34.856 L 86.397,34.855 C 79.749,34.854 78.517,34.764 76.205,34.115 C 75.019,33.781 73.199,32.908 72.072,32.132 C 70.313,30.92 68.551,28.876 67.565,26.904 c -0.46,-0.921 -1.042,-2.697 -1.369,-4.178 c -0.25,-1.132 -0.261,-1.403 -0.293,-6.795 c -0.018,-3.088 -0.045,-5.959 -0.06,-6.379 l -0.027,-0.764 l -26.617,-0.004 l -26.617,-0.004 l -0.738,0.233 c -1.747,0.552 -3.168,1.912 -3.838,3.671 L 7.754,13.349 L 7.725,39.734 C 7.693,68.672 7.649,66.677 8.348,68.092 c 0.406,0.822 1.693,2.11 2.564,2.565 c 1.415,0.74 -1.749,0.684 38.858,0.692 c 24.038,0.005 37.173,-0.032 37.567,-0.104 z" fill="#0258b1"/>
  <path d="M 19.622,33.734 L 19.622,31.586 q 1.776,0 2.464,-0.716 q 0.702,-0.73 0.702,-2.363 l 0,-2.807 q 0,-1.733 0.415,-2.85 q 0.43,-1.117 1.26,-1.747 q 0.845,-0.63 2.048,-0.888 q 1.217,-0.258 2.764,-0.258 l 0,2.865 q -1.762,0 -2.378,0.716 q -0.602,0.716 -0.602,2.435 l 0,3.581 q 0,0.802 -0.272,1.561 q -0.272,0.745 -0.988,1.346 q -0.716,0.587 -2.034,0.931 q -1.303,0.344 -3.38,0.344 z m 9.654,12.862 q -1.547,0 -2.764,-0.258 q -1.203,-0.258 -2.048,-0.888 q -0.831,-0.616 -1.26,-1.747 q -0.415,-1.117 -0.415,-2.85 l 0,-2.779 q 0,-1.647 -0.702,-2.378 q -0.687,-0.73 -2.464,-0.73 l 0,-2.148 q 2.077,0 3.38,0.358 q 1.318,0.344 2.034,0.945 q 0.716,0.602 0.988,1.361 q 0.272,0.745 0.272,1.547 l 0,3.552 q 0,1.719 0.602,2.435 q 0.616,0.716 2.378,0.716 z M 19.622,34.966 L 19.622,31.586 l 3.452,0 l 0,3.38 z" fill="#ffffff" aria-label="{"/>
  <path d="m 52.15,33.734 q -2.077,0 -3.395,-0.344 q -1.303,-0.344 -2.02,-0.931 q -0.716,-0.602 -1.003,-1.346 q -0.272,-0.759 -0.272,-1.561 l 0,-3.581 q 0,-1.719 -0.602,-2.435 q -0.602,-0.716 -2.378,-0.716 l 0,-2.865 q 1.561,0 2.764,0.258 q 1.217,0.258 2.048,0.888 q 0.831,0.63 1.26,1.747 q 0.43,1.117 0.43,2.85 l 0,2.807 q 0,1.633 0.687,2.363 q 0.702,0.716 2.478,0.716 z m -9.668,12.862 l 0,-2.865 q 1.776,0 2.378,-0.716 q 0.602,-0.716 0.602,-2.435 l 0,-3.552 q 0,-0.802 0.272,-1.547 q 0.286,-0.759 1.003,-1.361 q 0.716,-0.602 2.02,-0.945 q 1.318,-0.358 3.395,-0.358 l 0,2.148 q -1.776,0 -2.478,0.73 q -0.687,0.73 -0.687,2.378 l 0,2.779 q 0,1.733 -0.43,2.85 q -0.43,1.132 -1.26,1.747 q -0.831,0.63 -2.048,0.888 q -1.203,0.258 -2.764,0.258 z M 52.15,34.966 L 48.698,34.966 L 48.698,31.586 l 3.452,0 z" fill="#ffffff" aria-label="}"/>
  <path d="M 68.649,43.66 L 68.649,46.596 L 54.913,46.596 l 0,-2.936 z" fill="#ffffff" aria-label="_"/>
</svg>
