<?xml version="1.0" encoding="UTF-8"?>
<svg xmlns="http://www.w3.org/2000/svg" viewBox="-4.8 -4.8 193.257 157.363" role="img" aria-label="labelito">
  <g transform="translate(41.829 0)"><path d="M 13.5,3.5 H 70.5 L 97.5,30.5 V 65.5 A 11 11 0 0 1 86.5,76.5 H 13.5 A 11 11 0 0 1 2.5,65.5 V 14.5 A 11 11 0 0 1 13.5,3.5 Z" fill="#0258b1"/>
  <path d="M 13.5,8.5 H 65.5 V 24.5 A 11 11 0 0 0 76.5,35.5 H 92.5 V 65.5 A 6 6 0 0 1 86.5,71.5 H 13.5 A 6 6 0 0 1 7.5,65.5 V 14.5 A 6 6 0 0 1 13.5,8.5 Z" fill="#0376ea"/>
  <path d="M 70.5,3.5 L 97.5,30.5 L 76.5,30.5 A 6 6 0 0 1 70.5,24.5 L 70.5,3.5 Z" fill="#1fa35b"/>
  <path d="M 70.5,3.5 L 97.5,30.5 L 90.995,30.5 L 70.5,10.005 Z" fill="#56b296"/>
  <path d="M 21.4,55.6 H 78.6 A 1.9 1.9 0 0 1 78.6,59.4 H 21.4 A 1.9 1.9 0 0 1 21.4,55.6 Z" fill="#ffffff"/>
  <path d="M 19.622,33.734 L 19.622,31.586 q 1.776,0 2.464,-0.716 q 0.702,-0.73 0.702,-2.363 l 0,-2.807 q 0,-1.733 0.415,-2.85 q 0.43,-1.117 1.26,-1.747 q 0.845,-0.63 2.048,-0.888 q 1.217,-0.258 2.764,-0.258 l 0,2.865 q -1.762,0 -2.378,0.716 q -0.602,0.716 -0.602,2.435 l 0,3.581 q 0,0.802 -0.272,1.561 q -0.272,0.745 -0.988,1.346 q -0.716,0.587 -2.034,0.931 q -1.303,0.344 -3.38,0.344 z m 9.654,12.862 q -1.547,0 -2.764,-0.258 q -1.203,-0.258 -2.048,-0.888 q -0.831,-0.616 -1.26,-1.747 q -0.415,-1.117 -0.415,-2.85 l 0,-2.779 q 0,-1.647 -0.702,-2.378 q -0.687,-0.73 -2.464,-0.73 l 0,-2.148 q 2.077,0 3.38,0.358 q 1.318,0.344 2.034,0.945 q 0.716,0.602 0.988,1.361 q 0.272,0.745 0.272,1.547 l 0,3.552 q 0,1.719 0.602,2.435 q 0.616,0.716 2.378,0.716 z M 19.622,34.966 L 19.622,31.586 l 3.452,0 l 0,3.38 z" fill="#ffffff" aria-label="{"/>
  <path d="m 52.15,33.734 q -2.077,0 -3.395,-0.344 q -1.303,-0.344 -2.02,-0.931 q -0.716,-0.602 -1.003,-1.346 q -0.272,-0.759 -0.272,-1.561 l 0,-3.581 q 0,-1.719 -0.602,-2.435 q -0.602,-0.716 -2.378,-0.716 l 0,-2.865 q 1.561,0 2.764,0.258 q 1.217,0.258 2.048,0.888 q 0.831,0.63 1.26,1.747 q 0.43,1.117 0.43,2.85 l 0,2.807 q 0,1.633 0.687,2.363 q 0.702,0.716 2.478,0.716 z m -9.668,12.862 l 0,-2.865 q 1.776,0 2.378,-0.716 q 0.602,-0.716 0.602,-2.435 l 0,-3.552 q 0,-0.802 0.272,-1.547 q 0.286,-0.759 1.003,-1.361 q 0.716,-0.602 2.02,-0.945 q 1.318,-0.358 3.395,-0.358 l 0,2.148 q -1.776,0 -2.478,0.73 q -0.687,0.73 -0.687,2.378 l 0,2.779 q 0,1.733 -0.43,2.85 q -0.43,1.132 -1.26,1.747 q -0.831,0.63 -2.048,0.888 q -1.203,0.258 -2.764,0.258 z M 52.15,34.966 L 48.698,34.966 L 48.698,31.586 l 3.452,0 z" fill="#ffffff" aria-label="}"/>
  <path d="M 68.649,43.66 L 68.649,46.596 L 54.913,46.596 l 0,-2.936 z" fill="#ffffff" aria-label="_"/></g>
  <g transform="translate(-3.099 147.2) scale(0.027)"><path d="M464.16162109375 -1490.0V0.0H115.439453125V-1490.0ZM935.9994433593749 19.919921875Q829.2394335937499 19.919921875 745.7794726562499 -16.6600341796875Q662.3195117187499 -53.239990234375 615.1195605468749 -126.43994140625Q567.9196093749999 -199.639892578125 567.9196093749999 -310.39990234375Q567.9196093749999 -403.35986328125 600.5995410156249 -467.159912109375Q633.2794726562499 -530.9599609375 691.0793994140624 -570.780029296875Q748.8793261718749 -610.60009765625 823.9793017578124 -631.7801513671875Q899.0792773437499 -652.960205078125 983.9193652343749 -659.920166015625Q1079.359306640625 -668.360107421875 1137.4192431640624 -677.64013671875Q1195.4791796875 -686.920166015625 1222.179130859375 -705.8201904296875Q1248.87908203125 -724.72021484375 1248.87908203125 -758.880126953125V-763.360107421875Q1248.87908203125 -802.19970703125 1230.8591845703124 -829.0394287109375Q1212.839287109375 -855.879150390625 1179.079521484375 -870.0989990234375Q1145.319755859375 -884.31884765625 1096.96013671875 -884.31884765625Q1048.880546875 -884.31884765625 1011.6408007812499 -869.958984375Q974.4010546874999 -855.59912109375 950.3012011718749 -829.8792724609375Q926.2013476562499 -804.159423828125 916.5614550781249 -768.95947265625L599.9196093749999 -809.999267578125Q622.3993457031249 -905.919189453125 687.0392382812499 -978.2393798828125Q751.6791308593749 -1050.5595703125 856.0193408203124 -1091.27978515625Q960.3595507812499 -1132.0 1100.320244140625 -1132.0Q1204.200859375 -1132.0 1294.701103515625 -1107.4798583984375Q1385.20134765625 -1082.959716796875 1453.2213671875 -1035.359619140625Q1521.24138671875 -987.759521484375 1559.421318359375 -918.379638671875Q1597.60125 -848.999755859375 1597.60125 -759.040283203125V0.0H1269.359306640625V-156.56005859375H1260.399345703125Q1229.99919921875 -99.31982421875 1183.8191455078124 -60.099853515625Q1137.639091796875 -20.8798828125 1075.95916015625 -0.47998046875Q1014.2792285156249 19.919921875 935.9994433593749 19.919921875ZM1042.24041015625 -211.281005859375Q1101.1998828125 -211.281005859375 1148.5396044921874 -235.080810546875Q1195.879326171875 -258.880615234375 1223.8992236328124 -300.8603515625Q1251.91912109375 -342.840087890625 1251.91912109375 -397.919921875V-505.039306640625Q1237.119072265625 -497.359375 1214.5592578125 -490.2794189453125Q1191.999443359375 -483.199462890625 1165.01970703125 -477.4794921875Q1138.039970703125 -471.759521484375 1111.0201953125 -467.3995361328125Q1084.000419921875 -463.03955078125 1059.520439453125 -459.279541015625Q1008.2006152343749 -452.03955078125 972.2208789062499 -434.819580078125Q936.2411425781249 -417.599609375 917.4413378906249 -390.73974609375Q898.6415332031249 -363.8798828125 898.6415332031249 -326.480224609375Q898.6415332031249 -289.00048828125 917.2413867187499 -263.3006591796875Q935.8412402343749 -237.600830078125 968.0809863281249 -224.44091796875Q1000.3207324218749 -211.281005859375 1042.24041015625 -211.281005859375ZM2427.321396484375 16.39990234375Q2342.601669921875 16.39990234375 2280.2617041015624 -12.1199951171875Q2217.92173828125 -40.639892578125 2176.84166015625 -85.619873046875Q2135.76158203125 -130.599853515625 2113.72154296875 -181.360107421875H2101.321640625V0.0H1757.0794531249999V-1490.0H2105.80162109375V-926.079833984375H2113.72154296875Q2135.001572265625 -976.60009765625 2175.081650390625 -1024.0001220703125Q2215.161728515625 -1071.400146484375 2278.0217138671874 -1101.7000732421875Q2340.88169921875 -1132.0 2430.1214453125 -1132.0Q2548.081162109375 -1132.0 2649.26109375 -1070.360107421875Q2750.441025390625 -1008.72021484375 2812.8410498046874 -881.500244140625Q2875.24107421875 -754.2802734375 2875.24107421875 -557.52001953125Q2875.24107421875 -368.119873046875 2815.24107421875 -240.39990234375Q2755.24107421875 -112.679931640625 2653.6811376953124 -48.1400146484375Q2552.121201171875 16.39990234375 2427.321396484375 16.39990234375ZM2308.36021484375 -256.321533203125Q2376.119736328125 -256.321533203125 2422.299423828125 -293.8212890625Q2468.479111328125 -331.321044921875 2492.57896484375 -399.460693359375Q2516.678818359375 -467.600341796875 2516.678818359375 -558.0Q2516.678818359375 -648.919677734375 2492.6989599609374 -716.579345703125Q2468.7191015625 -784.239013671875 2422.5394140625 -821.7587890625Q2376.3597265625 -859.278564453125 2308.36021484375 -859.278564453125Q2241.84068359375 -859.278564453125 2194.6409765625 -822.478759765625Q2147.44126953125 -785.678955078125 2122.58140625 -718.25927734375Q2097.72154296875 -650.839599609375 2097.72154296875 -558.0Q2097.72154296875 -466.680419921875 2122.7014013671874 -399.040771484375Q2147.681259765625 -331.401123046875 2195.0009619140624 -293.861328125Q2242.3206640625 -256.321533203125 2308.36021484375 -256.321533203125ZM3511.56009765625 20.9599609375Q3336.639931640625 20.9599609375 3210.019814453125 -48.3800048828125Q3083.399697265625 -117.719970703125 3015.7196435546875 -246.719970703125Q2948.03958984375 -375.719970703125 2948.03958984375 -554.56005859375Q2948.03958984375 -727.320068359375 3015.7396630859375 -857.1800537109375Q3083.439736328125 -987.0400390625 3207.1998681640625 -1059.52001953125Q3330.96 -1132 3498.920205078125 -1132.0Q3616.800576171875 -1132.0 3715.460732421875 -1094.89990234375Q3814.120888671875 -1057.7998046875 3886.5209130859375 -985.459716796875Q3958.9209375 -913.11962890625 3998.640908203125 -806.879638671875Q4038.36087890625 -700.6396484375 4038.36087890625 -561.599853515625V-473.6796875H3071.559609375V-677.3603515625H3872.199990234375L3709.158974609375 -628.96044921875Q3709.158974609375 -707.0400390625 3685.6791162109375 -762.899658203125Q3662.1992578125 -818.75927734375 3616.239541015625 -849.01904296875Q3570.27982421875 -879.27880859375 3501.960244140625 -879.27880859375Q3433.6406640625 -879.27880859375 3386.720986328125 -848.779052734375Q3339.80130859375 -818.279296875 3315.481484375 -763.859619140625Q3291.16166015625 -709.43994140625 3291.16166015625 -635.920166015625V-490.07958984375Q3291.16166015625 -404.080078125 3319.3414697265625 -346.46044921875Q3347.521279296875 -288.8408203125 3398.8009423828125 -260.301025390625Q3450.08060546875 -231.76123046875 3517.880166015625 -231.76123046875Q3564.879921875 -231.76123046875 3603.2997216796875 -245.0611572265625Q3641.719521484375 -258.361083984375 3669.319375 -283.94091796875Q3696.919228515625 -309.520751953125 3711.079140625 -346.760498046875L4021.8808984375 -295.720458984375Q3994.36087890625 -199.560302734375 3925.520791015625 -128.3402099609375Q3856.680703125 -57.1201171875 3752.260537109375 -18.080078125Q3647.84037109375 20.9599609375 3511.56009765625 20.9599609375ZM4498.44162109375 -1490.0V0.0H4149.719453125V-1490.0ZM4658.039453124999 0.0V-1118.0H5006.761621093749V0.0ZM4831.880517578124 -1248.559326171875Q4757.320214843749 -1248.559326171875 4704.360009765624 -1298.039985611594Q4651.399804687499 -1347.5206450513128 4651.399804687499 -1416.7935682669195Q4651.399804687499 -1487.480224609375 4704.360009765624 -1536.42041015625Q4757.320214843749 -1585.360595703125 4831.880517578124 -1585.360595703125Q4906.463664899553 -1585.360595703125 4959.532442801339 -1536.5018397739955Q5012.601220703124 -1487.6430838448662 5012.601220703124 -1416.8332926432292Q5012.601220703124 -1347.439697265625 4959.532442801339 -1297.99951171875Q4906.463664899553 -1248.559326171875 4831.880517578124 -1248.559326171875ZM5769.001542968749 -1118.0V-859.11865234375H5070.919999999999V-1118ZM5219.159746093749 -1384.0H5567.881914062499V-342.440673828125Q5567.881914062499 -297.841064453125 5588.881791992187 -276.26123046875Q5609.881669921874 -254.681396484375 5657.321367187499 -254.681396484375Q5675.081376953124 -254.681396484375 5707.661455078124 -259.0614013671875Q5740.241533203124 -263.44140625 5753.881425781249 -267.44140625L5799.241533203124 -12.840087890625Q5740.081132812499 4.0 5685.200883789062 10.1400146484375Q5630.320634765624 16.280029296875 5580.880449218749 16.280029296875Q5403.200029296874 16.280029296875 5311.179887695312 -67.4400634765625Q5219.159746093749 -151.16015625 5219.159746093749 -310.96044921875ZM6395.520273437499 20.9599609375Q6220.719980468749 20.9599609375 6094.439829101561 -51.4200439453125Q5968.159677734374 -123.800048828125 5900.739633789061 -253.4200439453125Q5833.319589843749 -383.0400390625 5833.319589843749 -555.0400390625Q5833.319589843749 -727.760009765625 5900.739633789061 -857.5Q5968.159677734374 -987.239990234375 6094.439829101561 -1059.6199951171875Q6220.719980468749 -1132.0 6395.520273437499 -1132.0Q6570.560556640624 -1132.0 6696.200693359374 -1059.6199951171875Q6821.840830078124 -987.239990234375 6889.260874023436 -857.5Q6956.680917968749 -727.760009765625 6956.680917968749 -555.0400390625Q6956.680917968749 -383.0400390625 6889.260874023436 -253.4200439453125Q6821.840830078124 -123.800048828125 6696.200693359374 -51.4200439453125Q6570.560556640624 20.9599609375 6395.520273437499 20.9599609375ZM6395.520273437499 -245.681396484375Q6462.159677734374 -245.681396484375 6508.179331054686 -284.68115234375Q6554.198984374999 -323.680908203125 6577.798837890624 -393.860595703125Q6601.398691406249 -464.040283203125 6601.398691406249 -556.56005859375Q6601.398691406249 -650.079833984375 6577.798837890624 -719.3594970703125Q6554.198984374999 -788.63916015625 6508.179331054686 -826.9989013671875Q6462.159677734374 -865.358642578125 6395.520273437499 -865.358642578125Q6328.360849609374 -865.358642578125 6282.201181640624 -826.9989013671875Q6236.041513671874 -788.63916015625 6212.441660156249 -719.4794921875Q6188.841806640624 -650.31982421875 6188.841806640624 -556.56005859375Q6188.841806640624 -464.040283203125 6212.441660156249 -393.860595703125Q6236.041513671874 -323.680908203125 6282.201181640624 -284.68115234375Q6328.360849609374 -245.681396484375 6395.520273437499 -245.681396484375Z" fill="#0F1621"/></g>
</svg>
