<?xml version="1.0" encoding="UTF-8" standalone="no"?>
<svg
   viewBox="0 0 100 80"
   role="img"
   aria-label="Labelito"
   version="1.1"
   id="svg8"
   sodipodi:docname="logo.svg"
   inkscape:version="1.4.4 (dcaf3e7, 2026-05-05)"
   xml:space="preserve"
   inkscape:export-filename="logo3.svg"
   inkscape:export-xdpi="96"
   inkscape:export-ydpi="96"
   xmlns:inkscape="http://www.inkscape.org/namespaces/inkscape"
   xmlns:sodipodi="http://sodipodi.sourceforge.net/DTD/sodipodi-0.dtd"
   xmlns="http://www.w3.org/2000/svg"
   xmlns:svg="http://www.w3.org/2000/svg"><sodipodi:namedview
     id="namedview8"
     pagecolor="#ffffff"
     bordercolor="#000000"
     borderopacity="0.25"
     inkscape:showpageshadow="2"
     inkscape:pageopacity="0.0"
     inkscape:pagecheckerboard="0"
     inkscape:deskcolor="#d1d1d1"
     inkscape:zoom="15.182376"
     inkscape:cx="50.48617"
     inkscape:cy="39.848836"
     inkscape:window-width="2703"
     inkscape:window-height="1547"
     inkscape:window-x="754"
     inkscape:window-y="298"
     inkscape:window-maximized="0"
     inkscape:current-layer="svg8" /><defs
     id="defs2"><linearGradient
       id="fold"
       x1="62"
       y1="30"
       x2="94"
       y2="6"
       gradientUnits="userSpaceOnUse"><stop
         offset="0"
         stop-color="#0f9b52"
         id="stop1" /><stop
         offset="1"
         stop-color="#54bd82"
         id="stop2" /></linearGradient><clipPath
       id="clip"><path
         d="M17 6 H83 A11 11 0 0 1 94 17 V63 A11 11 0 0 1 83 74 H17 A11 11 0 0 1 6 63 V17 A11 11 0 0 1 17 6 Z"
         id="path2" /></clipPath></defs><!-- blue document face --><path
     style="display:inline;fill:#56b296"
     d="m 94.945822,-2.1884549 -3.109446,0.00746 C 84.826112,-9.184378 77.314587,-16.73978 70.52127,-23.425025 c -0.267544,-0.263288 -0.0023,-1.081547 -0.0023,-3.059183 0,0 -0.04228,-1.262907 -0.01532,-3.138392 l 13.853425,13.699903 c 7.647357,7.5626096 13.781282,13.7838809 13.750398,13.7719377 -0.03089,-0.011943 -1.432163,-0.020313 -3.161694,-0.037697 z"
     id="path11"
     sodipodi:nodetypes="ccsscsssc"
     transform="translate(-0.52172336,33.390294)" /><path
     style="display:inline;opacity:1;fill:#1fa35b"
     d="M 81.274124,-2.2700391 C 70.553407,-2.9847536 70.565166,-10.763258 70.45756,-17.992647 c -0.03107,-3.652353 -0.0659,-5.504534 0.01805,-5.476397 0.107363,0.03599 21.355392,21.2103506 21.355392,21.2814487 0,0.070164 -6.511153,0.1872711 -10.556879,-0.082444 z"
     id="path9"
     sodipodi:nodetypes="ssssss"
     transform="translate(-0.52172336,33.390294)" /><path
     id="path16"
     style="display:inline;fill:#0376ea"
     d="m 13.074219,-24.857422 a 0.72048895,0.72048895 0 0 0 -0.216797,0.0332 l -0.738281,0.232422 c -1.96378,0.621021 -3.5482141,2.142899 -4.2949223,4.103516 l -0.2539062,0.662109 a 0.72048895,0.72048895 0 0 0 -0.046875,0.257813 L 7.4941406,6.8164062 C 7.4781065,21.285131 7.4582938,28.012529 7.53125,31.332031 c 0.036478,1.659751 0.089793,2.46395 0.203125,3.025391 0.1133317,0.561441 0.3107807,0.838583 0.4570313,1.134765 0.782172,1.584032 2.5594517,2.992864 4.3144527,3.464844 0.205923,0.05538 0.33547,0.05733 0.603516,0.07227 0.268046,0.01494 0.640716,0.02601 1.171875,0.03711 1.062319,0.0222 2.753265,0.03871 5.423828,0.05078 5.341126,0.02414 14.601365,0.03196 30.554688,0.03516 12.019607,0.0024 21.313356,-0.0055 27.652343,-0.02344 3.169494,-0.0089 5.600846,-0.02147 7.265625,-0.03516 0.83239,-0.0068 1.471768,-0.01344 1.919922,-0.02148 0.224077,-0.004 0.400445,-0.0092 0.53125,-0.01367 0.130805,-0.0045 0.130427,0.01304 0.328125,-0.02344 1.27386,-0.235018 2.609446,-0.995181 3.539063,-1.984375 0.436998,-0.465004 0.886483,-1.025016 1.132812,-1.482422 0.155406,-0.288573 0.336593,-0.572038 0.453125,-1.033203 0.116532,-0.461164 0.171756,-1.046733 0.210938,-2.111328 0.07836,-2.12919 0.07031,-6.20145 0.07031,-14.785156 V 1.9394531 A 0.72048895,0.72048895 0 0 0 92.642578,1.21875 L 86.888672,1.2168 C 81.428721,1.2159227 80.142591,1.162838 78.503906,0.88085938 75.733154,0.40407907 73.212202,-0.8980076 71.197266,-2.8964844 69.245917,-4.8318939 68.1313,-6.9880429 67.390625,-10.345703 c -0.122777,-0.556589 -0.174055,-0.820184 -0.210938,-1.675781 -0.03688,-0.855598 -0.04858,-2.271661 -0.06445,-4.966797 -0.0182,-3.090123 -0.04299,-5.899316 -0.06055,-6.402344 l -0.02734,-0.763672 a 0.72048895,0.72048895 0 0 0 -0.720703,-0.695312 l -26.615235,-0.0039 z"
     transform="translate(-0.52172336,33.390294)" /><path
     style="display:inline;fill:#ffffff"
     d="m 79.632962,26.403256 c 0.554853,-0.166238 1.330614,-0.896574 1.330614,-1.834684 -0.08082,-1.074857 -0.694698,-1.817151 -1.631754,-1.8584 -0.167679,-0.0074 -57.310415,-0.0045 -57.945252,0.0025 -1.308061,0.01436 -1.518123,1.635569 -1.518123,1.855896 0,0.928423 0.866758,1.895037 1.544223,1.884192 0.17172,-0.0027 13.23984,0.05423 29.04439,0.06424 21.727508,0.01375 28.842941,-0.01399 29.175904,-0.113746 z"
     id="path10"
     sodipodi:nodetypes="sssssssss"
     transform="translate(-0.52172336,33.390294)" /><path
     style="display:inline;fill:#0258b1"
     d="M 12.343859,43.75017 C 11.327123,43.570417 10.123048,43.18602 9.2374603,42.758463 6.1747078,41.279782 3.977484,38.60187 3.0667305,35.237759 2.8605615,34.476218 2.8538989,33.59552 2.8538989,7.1047974 V -20.242013 l 0.2472784,-0.926512 c 0.8743646,-3.276102 3.2316555,-6.053147 6.3684221,-7.502422 0.4464273,-0.206262 1.1873236,-0.491385 1.6464356,-0.633606 l 0.834749,-0.258584 29.278768,-0.02972 29.278768,-0.02972 0.0386,8.34027 c 0.03428,7.40835 0.06018,8.43139 0.231717,9.155761 1.15842,4.8916859 4.407066,8.2676511 9.230327,9.5920782 0.878299,0.2411733 1.091234,0.2481361 9.489961,0.3103163 l 8.591502,0.063607 0.031,17.2953135 c 0.0196,10.933253 -0.01027,17.708435 -0.0812,18.418386 -0.268902,2.69157 -1.22186,4.800458 -3.033114,6.712257 -1.495268,1.578272 -3.038791,2.540666 -5.12085,3.192875 l -1.005025,0.314826 -38.128302,0.01335 c -20.970567,0.0073 -38.254648,-0.009 -38.409071,-0.03629 z m 75.483202,-5.423263 c 2.086509,-0.384947 4.107836,-2.268807 4.644306,-4.328454 0.150698,-0.578568 0.172157,-2.617861 0.172157,-16.360372 V 1.9386648 L 86.887779,1.9377433 C 80.239254,1.9366789 79.007237,1.8471733 76.695898,1.1973066 75.509166,0.86363946 73.689341,-0.00933644 72.562621,-0.7854396 70.803963,-1.9968312 69.041828,-4.0408234 68.056,-6.0129014 c -0.460347,-0.9208929 -1.042252,-2.6967155 -1.368927,-4.1776146 -0.249742,-1.132142 -0.261449,-1.403435 -0.293198,-6.794588 -0.01819,-3.088448 -0.04507,-5.959184 -0.05973,-6.379413 l -0.02666,-0.764052 -26.616812,-0.0045 -26.616812,-0.0045 -0.738097,0.233415 c -1.746743,0.552386 -3.1678471,1.911741 -3.8379305,3.671166 L 8.2446506,-19.568211 8.2154106,6.81672 C 8.1833416,35.754931 8.1395116,33.759499 8.8383,35.174666 c 0.4056823,0.821576 1.693238,2.109702 2.563567,2.564702 1.415325,0.739918 -1.7487686,0.683595 38.858432,0.691715 24.038409,0.0048 37.173338,-0.03163 37.566766,-0.104217 z"
     id="path8"
     sodipodi:nodetypes="sssscssscccscsscssssccsscsscssssssscccsscsssscc"
     transform="translate(-0.52172336,33.390294)" /><!-- green folded corner, clipped inside the silhouette so it can't poke past the border --><!-- border on top, so it stays clean around the fold corner --><!-- code braces --><!-- prompt underscore --><!-- underline --><path
     d="M 19.590928,34.207115 V 32.05868 q 1.77604,0 2.463539,-0.716145 0.701822,-0.730468 0.701822,-2.363279 v -2.807288 q 0,-1.733071 0.415364,-2.850257 0.429687,-1.117186 1.260416,-1.747394 0.845051,-0.630208 2.048174,-0.88802 1.217447,-0.257812 2.76432,-0.257812 v 2.86458 q -1.761717,0 -2.377601,0.716145 -0.601562,0.716145 -0.601562,2.434893 v 3.580725 q 0,0.802082 -0.272135,1.561196 -0.272135,0.744791 -0.98828,1.346353 -0.716145,0.587239 -2.033852,0.930988 -1.303384,0.34375 -3.380205,0.34375 z m 9.653635,12.861964 q -1.546873,0 -2.76432,-0.257812 -1.203123,-0.257812 -2.048174,-0.88802 -0.830729,-0.615884 -1.260416,-1.747394 -0.415364,-1.117186 -0.415364,-2.850257 v -2.778642 q 0,-1.647134 -0.701822,-2.377602 -0.687499,-0.730468 -2.463539,-0.730468 v -2.148435 q 2.076821,0 3.380205,0.358073 1.317707,0.343749 2.033852,0.945311 0.716145,0.601562 0.98828,1.360676 0.272135,0.744791 0.272135,1.546873 v 3.552079 q 0,1.718748 0.601562,2.434893 0.615884,0.716145 2.377601,0.716145 z M 19.590928,35.438884 V 32.05868 h 3.451819 v 3.380204 z"
     id="text1"
     style="font-weight:600;font-size:29.3333px;font-family:Inter;-inkscape-font-specification:'Inter Semi-Bold';letter-spacing:1px;fill:#ffffff"
     aria-label="{" /><path
     d="m 52.119163,34.207115 q -2.076821,0 -3.394528,-0.34375 -1.303384,-0.343749 -2.019529,-0.930988 -0.716145,-0.601562 -1.002603,-1.346353 -0.272135,-0.759114 -0.272135,-1.561196 v -3.580725 q 0,-1.718748 -0.601562,-2.434893 -0.601561,-0.716145 -2.377601,-0.716145 v -2.86458 q 1.561196,0 2.76432,0.257812 1.217446,0.257812 2.048174,0.88802 0.830729,0.630208 1.260416,1.747394 0.429687,1.117186 0.429687,2.850257 v 2.807288 q 0,1.632811 0.687499,2.363279 0.701822,0.716145 2.477862,0.716145 z m -9.667958,12.861964 v -2.86458 q 1.77604,0 2.377601,-0.716145 0.601562,-0.716145 0.601562,-2.434893 v -3.552079 q 0,-0.802082 0.272135,-1.546873 0.286458,-0.759114 1.002603,-1.360676 0.716145,-0.601562 2.019529,-0.945311 1.317707,-0.358073 3.394528,-0.358073 v 2.148435 q -1.77604,0 -2.477862,0.730468 -0.687499,0.730468 -0.687499,2.377602 v 2.778642 q 0,1.733071 -0.429687,2.850257 -0.429687,1.13151 -1.260416,1.747394 -0.830728,0.630208 -2.048174,0.88802 -1.203124,0.257812 -2.76432,0.257812 z M 52.119163,35.438884 H 48.667344 V 32.05868 h 3.451819 z"
     id="text2"
     style="font-weight:600;font-size:29.3333px;font-family:Inter;-inkscape-font-specification:'Inter Semi-Bold';letter-spacing:1px;fill:#ffffff"
     aria-label="}" /><path
     d="M 68.617421,44.132885 V 47.06908 H 54.88176 v -2.936195 z"
     id="text6"
     style="font-weight:600;font-size:29.3333px;font-family:Inter;-inkscape-font-specification:'Inter Semi-Bold';letter-spacing:1px;fill:#ffffff"
     aria-label="_" /></svg>
