<?xml version="1.0" encoding="UTF-8"?>
<svg xmlns="http://www.w3.org/2000/svg" viewBox="0 0 100 80" role="img" aria-label="labelito">
  <path d="M 13.5,3.5 H 70.5 L 97.5,30.5 V 65.5 A 11 11 0 0 1 86.5,76.5 H 13.5 A 11 11 0 0 1 2.5,65.5 V 14.5 A 11 11 0 0 1 13.5,3.5 Z" fill="#0258b1"/>
  <path d="M 13.5,8.5 H 65.5 V 24.5 A 11 11 0 0 0 76.5,35.5 H 92.5 V 65.5 A 6 6 0 0 1 86.5,71.5 H 13.5 A 6 6 0 0 1 7.5,65.5 V 14.5 A 6 6 0 0 1 13.5,8.5 Z" fill="#0376ea"/>
  <path d="M 70.5,3.5 L 97.5,30.5 L 76.5,30.5 A 6 6 0 0 1 70.5,24.5 L 70.5,3.5 Z" fill="#1fa35b"/>
  <path d="M 70.5,3.5 L 97.5,30.5 L 90.995,30.5 L 70.5,10.005 Z" fill="#56b296"/>
  <path d="m 79.142,59.32 c 0.555,-0.166 1.331,-0.897 1.331,-1.835 c -0.081,-1.075 -0.695,-1.817 -1.632,-1.858 c -0.168,-0.007 -57.31,-0.004 -57.945,0.003 c -1.308,0.014 -1.518,1.636 -1.518,1.856 c 0,0.928 0.867,1.895 1.544,1.884 c 0.172,-0.003 13.24,0.054 29.044,0.064 c 21.728,0.014 28.843,-0.014 29.176,-0.114 z" fill="#ffffff"/>
  <path d="M 19.622,33.734 L 19.622,31.586 q 1.776,0 2.464,-0.716 q 0.702,-0.73 0.702,-2.363 l 0,-2.807 q 0,-1.733 0.415,-2.85 q 0.43,-1.117 1.26,-1.747 q 0.845,-0.63 2.048,-0.888 q 1.217,-0.258 2.764,-0.258 l 0,2.865 q -1.762,0 -2.378,0.716 q -0.602,0.716 -0.602,2.435 l 0,3.581 q 0,0.802 -0.272,1.561 q -0.272,0.745 -0.988,1.346 q -0.716,0.587 -2.034,0.931 q -1.303,0.344 -3.38,0.344 z m 9.654,12.862 q -1.547,0 -2.764,-0.258 q -1.203,-0.258 -2.048,-0.888 q -0.831,-0.616 -1.26,-1.747 q -0.415,-1.117 -0.415,-2.85 l 0,-2.779 q 0,-1.647 -0.702,-2.378 q -0.687,-0.73 -2.464,-0.73 l 0,-2.148 q 2.077,0 3.38,0.358 q 1.318,0.344 2.034,0.945 q 0.716,0.602 0.988,1.361 q 0.272,0.745 0.272,1.547 l 0,3.552 q 0,1.719 0.602,2.435 q 0.616,0.716 2.378,0.716 z M 19.622,34.966 L 19.622,31.586 l 3.452,0 l 0,3.38 z" fill="#ffffff" aria-label="{"/>
  <path d="m 52.15,33.734 q -2.077,0 -3.395,-0.344 q -1.303,-0.344 -2.02,-0.931 q -0.716,-0.602 -1.003,-1.346 q -0.272,-0.759 -0.272,-1.561 l 0,-3.581 q 0,-1.719 -0.602,-2.435 q -0.602,-0.716 -2.378,-0.716 l 0,-2.865 q 1.561,0 2.764,0.258 q 1.217,0.258 2.048,0.888 q 0.831,0.63 1.26,1.747 q 0.43,1.117 0.43,2.85 l 0,2.807 q 0,1.633 0.687,2.363 q 0.702,0.716 2.478,0.716 z m -9.668,12.862 l 0,-2.865 q 1.776,0 2.378,-0.716 q 0.602,-0.716 0.602,-2.435 l 0,-3.552 q 0,-0.802 0.272,-1.547 q 0.286,-0.759 1.003,-1.361 q 0.716,-0.602 2.02,-0.945 q 1.318,-0.358 3.395,-0.358 l 0,2.148 q -1.776,0 -2.478,0.73 q -0.687,0.73 -0.687,2.378 l 0,2.779 q 0,1.733 -0.43,2.85 q -0.43,1.132 -1.26,1.747 q -0.831,0.63 -2.048,0.888 q -1.203,0.258 -2.764,0.258 z M 52.15,34.966 L 48.698,34.966 L 48.698,31.586 l 3.452,0 z" fill="#ffffff" aria-label="}"/>
  <path d="M 68.649,43.66 L 68.649,46.596 L 54.913,46.596 l 0,-2.936 z" fill="#ffffff" aria-label="_"/>
</svg>
